<svg xmlns="http://www.w3.org/2000/svg" version="1.1" xmlns:xlink="http://www.w3.org/1999/xlink" xmlns:svgjs="http://svgjs.dev/svgjs" width="100%" height="100%" viewBox="0 0 1000 600"><rect width="1000" height="600" x="0" y="0" fill="#0ea875"/><g><rect width="333.3333333333333" height="333.3333333333333" rx="13.333333333333334" ry="13.333333333333334" y="111.66666425872012" fill="green" transform="matrix(1.39751547497045,0,0,1.3975154749704504,0,-88.97514323982911)" x="89.44442749023438"/><path d="M316.1110926649297 233.33332108057266L226.11109266492969 233.33332108057266L226.11109266492969 203.33332108057266L316.1110926649297 203.33332108057266L316.1110926649297 233.33332108057266ZM316.1110926649297 323.33332108057266L286.1110926649297 323.33332108057266L286.1110926649297 293.33332108057266L226.11109266492969 293.33332108057266L226.11109266492969 263.33332108057266L196.11109266492969 263.33332108057266L196.11109266492969 233.33332108057266L226.11109266492969 233.33332108057266L226.11109266492969 263.33332108057266L286.1110926649297 263.33332108057266L286.1110926649297 293.33332108057266L316.1110926649297 293.33332108057266L316.1110926649297 323.33332108057266ZM286.1110926649297 353.33332108057266L196.11109266492969 353.33332108057266L196.11109266492969 323.33332108057266L286.1110926649297 323.33332108057266L286.1110926649297 353.33332108057266Z " fill="#ffffff" transform="matrix(1.39751547497045,0,0,1.3975154749704504,0,-88.97514323982911)"/><path d="M626.1110926649296 233.33332108057266L536.1110926649296 233.33332108057266L536.1110926649296 203.33332108057266L626.1110926649296 203.33332108057266L626.1110926649296 233.33332108057266ZM626.1110926649296 323.33332108057266L596.1110926649296 323.33332108057266L596.1110926649296 293.33332108057266L536.1110926649296 293.33332108057266L536.1110926649296 263.33332108057266L506.11109266492963 263.33332108057266L506.11109266492963 233.33332108057266L536.1110926649296 233.33332108057266L536.1110926649296 263.33332108057266L596.1110926649296 263.33332108057266L596.1110926649296 293.33332108057266L626.1110926649296 293.33332108057266L626.1110926649296 323.33332108057266ZM596.1110926649296 353.33332108057266L506.11109266492963 353.33332108057266L506.11109266492963 323.33332108057266L596.1110926649296 323.33332108057266L596.1110926649296 353.33332108057266Z " fill="#161b21" transform="matrix(1.39751547497045,0,0,1.3975154749704504,0,-88.97514323982911)"/></g></svg>